# xmcd
#
# Track frame offsets: 
#        150
#        20318
#        54634
#        76379
#        98023
#        127155
#        146902
#        171678
#        187411
#        205123
#        232460
#        249734
#
# Disc length: 3740 seconds
#
# Revision: 0
# Processed by: cddbd v1.5.2PL0 Copyright (c) Steve Scherf et al.
# Submitted via: ExactAudioCopy v0.95a5
#
DISCID=be0e9a0c
DTITLE=Robbert Fossen Blues Band - Got It Covered
DYEAR=2007
DGENRE=Blues
TTITLE0=Living the Blues
TTITLE1=I've got the right to know
TTITLE2=Loan me a trainfare
TTITLE3=Broke and hungry
TTITLE4=Gold tailed Bird
TTITLE5=Warm Hearted Woman
TTITLE6=Lay around and Love on You
TTITLE7=Me, Myself and I
TTITLE8=Satan comes as a Man of Peace
TTITLE9=Four Little Boys
TTITLE10=Your Day Will Come
TTITLE11=Another Man's Wife
EXTD=
EXTT0=
EXTT1=
EXTT2=
EXTT3=
EXTT4=
EXTT5=
EXTT6=
EXTT7=
EXTT8=
EXTT9=
EXTT10=
EXTT11=
PLAYORDER=
